<svg width="1137" height="532" viewBox="0 0 1137 532" fill="none" xmlns="http://www.w3.org/2000/svg">
<path d="M125.898 528.556L123.947 528.116C145.703 431.365 200.377 343.507 277.898 280.725C336.507 233.333 406.213 201.637 480.453 188.622C554.692 175.607 631.023 181.7 702.258 206.327C773.493 230.955 837.288 273.307 887.636 329.396C937.985 385.485 973.23 453.465 990.053 526.936L988.104 527.379C942.05 325.17 764.83 183.944 557.134 183.944C352.161 183.944 170.8 328.874 125.898 528.556Z" fill="#3F3D56"/>
<path d="M295.043 177.432H286.141V529.085H295.043V177.432Z" fill="#3F3D56"/>
<path d="M914.5 383.5H225.5V529.5H914.5V383.5Z" fill="#F2F2F2"/>
<path d="M203.5 399.5L278.5 242.5H877.5L933.5 399.5H203.5Z" fill="#032363"/>
<path d="M668.5 252.5H390.5V344.5H668.5V252.5Z" fill="#F2F2F2"/>
<path d="M408.5 177.5L364.5 269.5H694.5L668.5 177.5H408.5Z" fill="#032363"/>
<path d="M634.5 412.5H415V529.5H634.5V412.5Z" fill="#CCCCCC"/>
<path d="M369.5 416.5H252.5V529.5H369.5V416.5Z" fill="#CCCCCC"/>
<path d="M733 423.5H672.5V529.5H733V423.5Z" fill="#032363"/>
<path d="M1137 529H0V531H1137V529Z" fill="#3F3D56"/>
<path d="M185.78 297.059H179.905V529.112H185.78V297.059Z" fill="#3F3D56"/>
<path d="M239.997 326.631C240.371 407.775 183.283 473.819 183.283 473.819C183.283 473.819 125.588 408.304 125.214 327.16C124.84 246.017 181.928 179.973 181.928 179.973C181.928 179.973 239.623 245.488 239.997 326.631Z" fill="#4CC197"/>
<path opacity="0.1" d="M239.997 326.631C240.371 407.775 183.283 473.819 183.283 473.819C183.283 473.819 125.588 408.304 125.214 327.16C124.84 246.017 181.928 179.973 181.928 179.973C181.928 179.973 239.623 245.488 239.997 326.631Z" fill="#26A376"/>
<path d="M109.408 297.059H103.533V529.112H109.408V297.059Z" fill="#3F3D56"/>
<path d="M163.625 326.631C163.999 407.775 106.911 473.819 106.911 473.819C106.911 473.819 49.2156 408.304 48.8417 327.16C48.4677 246.017 105.556 179.973 105.556 179.973C105.556 179.973 163.251 245.488 163.625 326.631Z" fill="#26A376"/>
<path d="M828 429.5H798.5V457H828V429.5Z" fill="#3F3D56"/>
<path d="M867.5 429.5H838V457H867.5V429.5Z" fill="#3F3D56"/>
<path d="M828 467H798.5V495.5H828V467Z" fill="#3F3D56"/>
<path d="M867.5 467H838V495.5H867.5V467Z" fill="#3F3D56"/>
<path d="M439.087 277.674H416V299.196H439.087V277.674Z" fill="#3F3D56"/>
<path d="M470 277.674H446.913V299.196H470V277.674Z" fill="#3F3D56"/>
<path d="M439.087 307.022H416V329.326H439.087V307.022Z" fill="#3F3D56"/>
<path d="M470 307.022H446.913V329.326H470V307.022Z" fill="#3F3D56"/>
<path d="M612.087 277.674H589V299.196H612.087V277.674Z" fill="#3F3D56"/>
<path d="M643 277.674H619.913V299.196H643V277.674Z" fill="#3F3D56"/>
<path d="M612.087 307.022H589V329.326H612.087V307.022Z" fill="#3F3D56"/>
<path d="M643 307.022H619.913V329.326H643V307.022Z" fill="#3F3D56"/>
<path d="M526.087 277.674H503V299.196H526.087V277.674Z" fill="#3F3D56"/>
<path d="M557 277.674H533.913V299.196H557V277.674Z" fill="#3F3D56"/>
<path d="M526.087 307.022H503V329.326H526.087V307.022Z" fill="#3F3D56"/>
<path d="M557 307.022H533.913V329.326H557V307.022Z" fill="#3F3D56"/>
<path d="M700.536 434.239H686V447.79H700.536V434.239Z" fill="#F2F2F2"/>
<path d="M720 434.239H705.464V447.79H720V434.239Z" fill="#F2F2F2"/>
<path d="M700.536 452.717H686V466.761H700.536V452.717Z" fill="#F2F2F2"/>
<path d="M720 452.717H705.464V466.761H720V452.717Z" fill="#F2F2F2"/>
<path d="M725 488C727.209 488 729 486.209 729 484C729 481.791 727.209 480 725 480C722.791 480 721 481.791 721 484C721 486.209 722.791 488 725 488Z" fill="#F2F2F2"/>
<path d="M635 425H415V427H635V425Z" fill="#F2F2F2"/>
<path d="M635 434H415V436H635V434Z" fill="#F2F2F2"/>
<path d="M635 443H415V445H635V443Z" fill="#F2F2F2"/>
<path d="M635 452H415V454H635V452Z" fill="#F2F2F2"/>
<path d="M635 461H415V463H635V461Z" fill="#F2F2F2"/>
<path d="M635 470H415V472H635V470Z" fill="#F2F2F2"/>
<path d="M635 479H415V481H635V479Z" fill="#F2F2F2"/>
<path d="M635 488H415V490H635V488Z" fill="#F2F2F2"/>
<path d="M635 497H415V499H635V497Z" fill="#F2F2F2"/>
<path d="M635 506H415V508H635V506Z" fill="#F2F2F2"/>
<path d="M635 515H415V517H635V515Z" fill="#F2F2F2"/>
<path d="M369.5 425H252.5V427H369.5V425Z" fill="#F2F2F2"/>
<path d="M369.5 434H252.5V436H369.5V434Z" fill="#F2F2F2"/>
<path d="M369.5 443H252.5V445H369.5V443Z" fill="#F2F2F2"/>
<path d="M369.5 452H252.5V454H369.5V452Z" fill="#F2F2F2"/>
<path d="M369.5 461H252.5V463H369.5V461Z" fill="#F2F2F2"/>
<path d="M369.5 470H252.5V472H369.5V470Z" fill="#F2F2F2"/>
<path d="M369.5 479H252.5V481H369.5V479Z" fill="#F2F2F2"/>
<path d="M369.5 488H252.5V490H369.5V488Z" fill="#F2F2F2"/>
<path d="M369.5 497H252.5V499H369.5V497Z" fill="#F2F2F2"/>
<path d="M369.5 506H252.5V508H369.5V506Z" fill="#F2F2F2"/>
<path d="M369.5 515H252.5V517H369.5V515Z" fill="#F2F2F2"/>
<path d="M863.293 306.587C901.011 306.587 931.587 276.011 931.587 238.293C931.587 200.576 901.011 170 863.293 170C825.576 170 795 200.576 795 238.293C795 276.011 825.576 306.587 863.293 306.587Z" fill="#496AEE"/>
<path d="M882.215 233.937V220.87C882.216 218.384 881.728 215.922 880.778 213.625C879.828 211.327 878.435 209.24 876.678 207.481C874.92 205.723 872.834 204.328 870.537 203.376C868.241 202.424 865.779 201.935 863.293 201.935C860.807 201.935 858.346 202.424 856.049 203.376C853.753 204.328 851.666 205.723 849.909 207.481C848.152 209.24 846.759 211.327 845.808 213.625C844.858 215.922 844.37 218.384 844.372 220.87V233.937C841.843 234.051 839.455 235.135 837.705 236.965C835.955 238.794 834.978 241.228 834.977 243.76V274.639H891.61V243.76C891.609 241.228 890.632 238.794 888.882 236.965C887.132 235.135 884.744 234.051 882.215 233.937V233.937ZM863.293 208.61C866.543 208.614 869.659 209.907 871.957 212.205C874.256 214.503 875.548 217.619 875.552 220.87V233.914H851.035V220.87C851.038 217.619 852.331 214.503 854.629 212.205C856.927 209.907 860.043 208.614 863.293 208.61Z" fill="white"/>
<path d="M868.384 249.186C868.385 248.308 868.158 247.445 867.726 246.681C867.295 245.917 866.673 245.277 865.921 244.824C865.169 244.371 864.313 244.12 863.436 244.096C862.558 244.071 861.69 244.274 860.914 244.684C860.138 245.095 859.481 245.699 859.008 246.438C858.534 247.177 858.26 248.026 858.211 248.902C858.162 249.778 858.341 250.653 858.73 251.439C859.119 252.226 859.704 252.899 860.43 253.393V264.458H866.157V253.393C866.843 252.927 867.405 252.3 867.793 251.566C868.182 250.833 868.385 250.016 868.384 249.186V249.186Z" fill="#496AEE"/>
</svg>
